<?xml version="1.0" standalone="no"?>
<!DOCTYPE svg PUBLIC "-//W3C//DTD SVG 20010904//EN"
 "http://www.w3.org/TR/2001/REC-SVG-20010904/DTD/svg10.dtd">
<svg version="1.0" xmlns="http://www.w3.org/2000/svg"
 width="137.000000pt" height="80.000000pt" viewBox="0 0 137.000000 80.000000"
 preserveAspectRatio="xMidYMid meet">

<g transform="translate(0.000000,80.000000) scale(0.100000,-0.100000)"
fill="#000000" stroke="none">
<path d="M205 760 c-4 -7 -3 -16 3 -22 14 -14 45 -2 40 15 -6 16 -34 21 -43 7z"/>
<path d="M80 690 c0 -5 16 -10 35 -10 32 0 35 -2 35 -30 0 -23 -5 -30 -19 -30
-35 0 -32 -17 15 -80 33 -43 50 -58 57 -51 8 8 3 20 -17 40 -19 20 -26 36 -22
47 5 13 9 15 18 6 7 -7 27 -12 44 -12 30 0 33 -3 36 -37 2 -20 8 -38 15 -40 9
-3 13 21 15 89 l3 93 105 0 c92 0 105 -2 108 -17 3 -15 -4 -18 -47 -18 -28 0
-51 -3 -51 -7 0 -4 10 -17 22 -30 20 -21 20 -25 6 -39 -20 -20 -50 -6 -75 36
-15 27 -33 40 -33 24 0 -12 24 -51 48 -76 48 -52 118 -27 95 33 -10 27 -10 29
12 29 22 0 24 -5 27 -57 2 -33 8 -58 15 -60 9 -3 13 21 15 89 l3 93 40 0 c49
0 61 -28 21 -46 -32 -15 -32 -20 0 -58 21 -25 34 -31 64 -31 32 0 39 -4 42
-22 2 -12 9 -23 16 -26 9 -3 12 20 12 92 0 90 1 96 21 96 11 0 17 4 14 10 -4
6 -132 10 -351 10 -223 0 -344 -4 -344 -10z m178 -47 c-3 -36 -5 -38 -38 -38
-29 0 -36 4 -38 23 -6 39 5 52 43 52 36 0 36 -1 33 -37z m447 -13 c0 -38 -4
-46 -27 -60 -25 -13 -29 -13 -45 3 -16 16 -16 18 6 33 18 13 22 23 17 46 -5
27 -4 29 22 26 25 -3 27 -6 27 -48z"/>
<path d="M596 395 c4 -8 17 -15 31 -15 25 0 76 -46 67 -61 -3 -5 -57 -9 -120
-9 -64 0 -114 -4 -114 -9 0 -5 12 -11 28 -13 22 -2 28 -8 30 -35 2 -25 -1 -33
-12 -33 -22 0 -20 -23 2 -43 34 -31 42 -21 42 49 l0 65 28 -3 c27 -3 27 -4 32
-92 3 -59 9 -91 18 -94 9 -3 12 20 12 92 l0 96 30 0 29 0 3 -92 c2 -60 7 -93
15 -95 9 -3 13 21 15 89 l3 93 43 3 c41 3 42 2 42 -27 0 -24 -4 -31 -19 -31
-11 0 -22 -4 -25 -9 -5 -7 40 -74 83 -123 3 -4 13 -3 21 2 12 8 9 15 -19 44
-26 27 -31 38 -23 48 6 7 12 31 14 53 l3 40 60 0 c54 0 60 -2 63 -22 3 -20 1
-21 -27 -10 -67 25 -108 -34 -57 -82 19 -18 31 -22 56 -16 27 6 31 4 29 -12
-2 -10 0 -24 4 -31 19 -30 27 -6 27 83 l0 95 85 0 c75 0 85 -2 85 -18 0 -32
-19 -41 -50 -25 -53 26 -90 -15 -65 -73 15 -34 62 -80 72 -71 3 4 -6 20 -20
35 -29 30 -36 76 -14 85 18 7 41 -8 33 -21 -13 -21 16 -23 38 -3 43 40 69 18
35 -30 -18 -26 -19 -33 -8 -40 19 -12 49 25 49 61 0 15 -9 37 -20 50 -26 30
-21 44 18 48 41 4 32 22 -11 23 -27 0 -37 8 -62 47 -26 41 -35 47 -67 50 -31
3 -37 0 -32 -12 3 -9 17 -16 29 -16 25 0 48 -18 65 -51 10 -18 5 -19 -214 -19
l-224 0 -36 50 c-31 43 -40 50 -71 50 -26 0 -33 -3 -29 -15z m372 -182 c5 -18
-45 -40 -60 -25 -6 6 -8 18 -4 27 7 19 57 17 64 -2z"/>
</g>
</svg>
